<svg width="80" height="80" viewBox="0 0 80 80" fill="none" xmlns="http://www.w3.org/2000/svg">
<path d="M67.7949 12.3423C68.9627 10.5926 68.859 8.90727 67.8985 7.22272C66.4339 4.65545 64.4352 2.49106 61.8263 1.11672C58.4258 -0.684842 55.8428 -0.515994 53.7789 3.17823C51.3256 7.59811 48.6743 11.9151 46.1078 16.2832C43.7847 20.2499 41.4484 24.2033 38.878 28.5721C38.3997 27.3077 35.7892 15.285 34.4015 9.48842C34.0638 8.06225 33.3374 6.5332 32.3251 5.50912C29.8049 2.9709 26.5859 1.44107 23.0039 1.41358C18.8244 1.38923 17.6825 2.69839 18.0712 6.30231C18.2142 7.59811 18.3854 8.89392 18.6429 10.1779C20.2034 17.8271 22.4715 25.2666 25.5995 32.4085C26.856 35.2993 28.5201 38.0629 30.2981 40.6663C31.012 41.703 31.0638 42.2731 30.5707 43.3106C28.1958 48.288 25.7683 53.2396 23.6526 58.3215C21.7191 62.9621 20.5246 67.8241 20.7846 72.9288C20.8882 75.0028 21.8228 76.6096 23.4453 77.8544C25.8987 79.7337 28.7283 80.3675 31.6913 79.7989C34.3387 79.2931 36.6107 78.1269 37.3112 75.0672C40.9431 59.138 47.1253 44.2574 55.8577 30.4255C59.8873 24.0564 63.7732 18.3447 67.7949 12.3423Z" fill="#EBEBEB"/>
</svg>
